# xmcd CD database file
#
# Track frame offsets:
#	150
#	13740
#	29580
#	48472
#	65053
#	81800
#	97690
#	112030
#	126912
#	140138
#	152281
#	166415
#	179641
#
# Disc length: 2624 seconds
#
# Revision: 0
# Processed by: cddbd v1.5.2PL0 Copyright (c) Steve Scherf et al.
# Submitted via: CDex 1.51
#
DISCID=b20a3e0d
DTITLE=Moot Davis - Goin' In Hot
DYEAR=2014
DGENRE=Country
TTITLE0=Goin' In Hot
TTITLE1=Food Stamps
TTITLE2=Just Left Home
TTITLE3=Made For Blood
TTITLE4=Use To Call It Love
TTITLE5=Walk Alone
TTITLE6=Midnight Train
TTITLE7=Hurtin' For Real
TTITLE8=The Reason
TTITLE9=Love Hangover
TTITLE10=Ragman's Roll
TTITLE11=I Wanna Go Back
TTITLE12=Moot Davis - 25 Lights
EXTD=YEAR: 2014
EXTT0=
EXTT1=
EXTT2=
EXTT3=
EXTT4=
EXTT5=
EXTT6=
EXTT7=
EXTT8=
EXTT9=
EXTT10=
EXTT11=
EXTT12=
PLAYORDER=
